<svg width="244" height="522" viewBox="0 0 244 522" fill="none" xmlns="http://www.w3.org/2000/svg">
<path d="M207.2 0.783893L32.002 0.783893C15.0259 0.847669 1.27813 -4.94837 1.22388 15.0062L1.22388 470.057C1.22388 500.496 -4.77224 532.479 15.4999 494.504L119.601 342.1L223 506.5C243.272 544.476 237.978 500.438 237.978 470.057L243.001 18.0076C242.947 -1.94698 224.176 0.847669 207.2 0.783893Z" fill="#D8345F"/>
<path d="M100.224 261.014L91.6611 263.264V278.107L100.224 280.42V293.982L54.3486 279.076V262.607L100.224 247.514V261.014ZM81.5361 265.826L74.0361 267.795C72.3695 268.253 70.2132 268.816 67.5674 269.482C64.9215 270.128 63.0257 270.555 61.8799 270.764C62.9424 270.951 64.6924 271.326 67.1299 271.889C69.5674 272.43 74.3695 273.649 81.5361 275.545V265.826ZM64.0049 222.201C64.0049 225.139 65.2132 227.43 67.6299 229.076C70.0257 230.722 73.3382 231.545 77.5674 231.545C86.359 231.545 90.7549 228.201 90.7549 221.514C90.7549 219.493 90.4736 217.535 89.9111 215.639C89.3486 213.743 88.6715 211.837 87.8799 209.92H98.3174C100.005 213.732 100.849 218.045 100.849 222.857C100.849 229.753 98.8486 235.045 94.8486 238.732C90.8486 242.399 85.0674 244.232 77.5049 244.232C72.7757 244.232 68.6195 243.347 65.0361 241.576C61.4528 239.785 58.7028 237.222 56.7861 233.889C54.8486 230.535 53.8799 226.597 53.8799 222.076C53.8799 217.139 54.9528 212.42 57.0986 207.92L66.8174 211.701C66.0257 213.389 65.359 215.076 64.8174 216.764C64.2757 218.451 64.0049 220.264 64.0049 222.201ZM100.224 180.826V193.17H64.6299V204.326H54.5361V169.701H64.6299V180.826H100.224ZM100.224 163.17H54.5361V150.764H100.224V163.17ZM54.5361 115.201V101.389L100.224 116.357V130.889L54.5361 145.795V131.92L77.6924 125.701C82.8382 124.41 86.4215 123.701 88.4424 123.576C86.984 123.43 85.1611 123.139 82.9736 122.701C80.7861 122.264 79.0674 121.878 77.8174 121.545L54.5361 115.201ZM100.224 69.2949V96.4199H54.5361V69.2949H64.4424V84.0762H71.6299V70.3887H81.5361V84.0762H90.1611V69.2949H100.224ZM164.317 246.295C172.005 246.295 177.849 248.18 181.849 251.951C185.849 255.722 187.849 261.243 187.849 268.514C187.849 275.68 185.838 281.18 181.817 285.014C177.797 288.826 171.942 290.732 164.255 290.732C156.651 290.732 150.849 288.837 146.849 285.045C142.828 281.232 140.817 275.701 140.817 268.451C140.817 261.18 142.807 255.67 146.786 251.92C150.765 248.17 156.609 246.295 164.317 246.295ZM164.317 277.732C173.151 277.732 177.567 274.66 177.567 268.514C177.567 265.389 176.494 263.076 174.349 261.576C172.203 260.055 168.859 259.295 164.317 259.295C159.755 259.295 156.39 260.066 154.224 261.607C152.036 263.128 150.942 265.41 150.942 268.451C150.942 274.639 155.401 277.732 164.317 277.732ZM170.599 225.701H187.224V238.045H141.536V223.076C141.536 210.66 146.036 204.451 155.036 204.451C160.328 204.451 164.422 207.035 167.317 212.201L187.224 198.889V212.889L170.599 222.576V225.701ZM161.317 225.701V223.389C161.317 219.076 159.411 216.92 155.599 216.92C152.453 216.92 150.88 219.035 150.88 223.264V225.701H161.317ZM163.411 155.951C171.036 155.951 176.911 158.055 181.036 162.264C185.161 166.451 187.224 172.347 187.224 179.951V194.732H141.536V178.92C141.536 171.587 143.411 165.93 147.161 161.951C150.911 157.951 156.328 155.951 163.411 155.951ZM163.849 168.764C159.661 168.764 156.557 169.597 154.536 171.264C152.515 172.91 151.505 175.42 151.505 178.795V182.389H177.099V179.639C177.099 175.889 176.015 173.139 173.849 171.389C171.661 169.639 168.328 168.764 163.849 168.764ZM187.224 120.607V147.732H141.536V120.607H151.442V135.389H158.63V121.701H168.536V135.389H177.161V120.607H187.224ZM170.599 100.264H187.224V112.607H141.536V97.6387C141.536 85.222 146.036 79.0137 155.036 79.0137C160.328 79.0137 164.422 81.597 167.317 86.7637L187.224 73.4512V87.4512L170.599 97.1387V100.264ZM161.317 100.264V97.9512C161.317 93.6387 159.411 91.4824 155.599 91.4824C152.453 91.4824 150.88 93.597 150.88 97.8262V100.264H161.317Z" fill="white"/>
</svg>
