<svg width="472" height="272" viewBox="0 0 472 272" fill="none" xmlns="http://www.w3.org/2000/svg">
<path d="M344 240H72L56 208H344V240Z" fill="white"/>
<path d="M56 0H344V208H56V0Z" fill="url(#paint0_linear)"/>
<path d="M344 88H408L440 144L461.395 149.349C464.424 150.106 467.113 151.854 469.035 154.315C470.956 156.776 472 159.809 472 162.931V224L456 240H344V88Z" fill="url(#paint1_linear)"/>
<path d="M408 88H376V144H440L408 88Z" fill="#CBCBCB"/>
<path d="M400 88H376V144H432L400 88Z" fill="#EAEAE8"/>
<path d="M128 264C145.673 264 160 249.673 160 232C160 214.327 145.673 200 128 200C110.327 200 96 214.327 96 232C96 249.673 110.327 264 128 264Z" fill="#EAEAE8"/>
<path d="M408 264C425.673 264 440 249.673 440 232C440 214.327 425.673 200 408 200C390.327 200 376 214.327 376 232C376 249.673 390.327 264 408 264Z" fill="#EAEAE8"/>
<path d="M128 272C120.089 272 112.355 269.654 105.777 265.259C99.1992 260.864 94.0723 254.616 91.0448 247.307C88.0173 239.998 87.2252 231.956 88.7686 224.196C90.312 216.437 94.1217 209.31 99.7158 203.716C105.31 198.122 112.437 194.312 120.196 192.769C127.956 191.225 135.998 192.017 143.307 195.045C150.616 198.072 156.864 203.199 161.259 209.777C165.654 216.355 168 224.089 168 232C167.988 242.605 163.77 252.772 156.271 260.271C148.772 267.77 138.605 271.988 128 272ZM128 208C123.253 208 118.613 209.408 114.666 212.045C110.72 214.682 107.643 218.43 105.827 222.816C104.01 227.201 103.535 232.027 104.461 236.682C105.387 241.338 107.673 245.614 111.029 248.971C114.386 252.327 118.662 254.613 123.318 255.539C127.973 256.465 132.799 255.99 137.184 254.173C141.57 252.357 145.318 249.28 147.955 245.334C150.592 241.387 152 236.747 152 232C151.993 225.637 149.462 219.537 144.962 215.038C140.463 210.538 134.363 208.007 128 208Z" fill="#656666"/>
<path d="M248 176H195.319C190.197 175.994 185.287 173.957 181.665 170.335C178.043 166.713 176.006 161.803 176 156.681V136C176 133.878 176.843 131.843 178.343 130.343C179.843 128.843 181.878 128 184 128C186.122 128 188.157 128.843 189.657 130.343C191.157 131.843 192 133.878 192 136V156.681C192.001 157.561 192.351 158.405 192.973 159.027C193.595 159.649 194.439 159.999 195.319 160H248C250.122 160 252.157 160.843 253.657 162.343C255.157 163.843 256 165.878 256 168C256 170.122 255.157 172.157 253.657 173.657C252.157 175.157 250.122 176 248 176Z" fill="#CBCBCB"/>
<path d="M168.006 96C166.519 96.0009 165.062 95.5874 163.797 94.806C162.532 94.0245 161.51 92.906 160.845 91.576L147.056 64H128C125.878 64 123.843 63.1572 122.343 61.6569C120.843 60.1566 120 58.1217 120 56C120 53.8783 120.843 51.8434 122.343 50.3431C123.843 48.8428 125.878 48 128 48H152C153.486 48.0001 154.942 48.4138 156.206 49.1948C157.469 49.9758 158.491 51.0933 159.155 52.422L175.155 84.422C175.765 85.6412 176.053 86.996 175.992 88.3578C175.931 89.7196 175.523 91.0432 174.807 92.203C174.09 93.3629 173.09 94.3205 171.9 94.985C170.709 95.6496 169.369 95.9989 168.006 96Z" fill="#CBCBCB"/>
<path d="M206 184C213.732 184 220 177.732 220 170C220 162.268 213.732 156 206 156C198.268 156 192 162.268 192 170C192 177.732 198.268 184 206 184Z" fill="#A8A8A8"/>
<path d="M206 176C209.314 176 212 173.314 212 170C212 166.686 209.314 164 206 164C202.686 164 200 166.686 200 170C200 173.314 202.686 176 206 176Z" fill="#CBCBCB"/>
<path d="M250 184C257.732 184 264 177.732 264 170C264 162.268 257.732 156 250 156C242.268 156 236 162.268 236 170C236 177.732 242.268 184 250 184Z" fill="#A8A8A8"/>
<path d="M250 176C253.314 176 256 173.314 256 170C256 166.686 253.314 164 250 164C246.686 164 244 166.686 244 170C244 173.314 246.686 176 250 176Z" fill="#CBCBCB"/>
<path d="M208 136H184L176 88V48C176 43.7565 177.686 39.6869 180.686 36.6863C183.687 33.6857 187.757 32 192 32C196.243 32 200.313 33.6857 203.314 36.6863C206.314 39.6869 208 43.7565 208 48V136Z" fill="#8F6934"/>
<path d="M208 56H248V136H208V56Z" fill="#0BAFEA"/>
<path d="M240 56H248V136H240V56Z" fill="#0A9ACD"/>
<path d="M200 56H208V136H200V56Z" fill="#5F4623"/>
<path d="M203.364 136C201.231 134.758 200 139.075 200 136.606V85.0624C200 83.2074 200.9 82.9174 202 84.4154C208.635 93.5044 216 81.6634 216 88.0004V136C216 141.9 209.6 139.634 203.364 136Z" fill="#CBCBCB"/>
<path d="M240 136C235.582 136 232 140.418 232 136V87.9997C232 83.5817 235.582 87.9997 240 87.9997C244.418 87.9997 248 83.5817 248 87.9997V136C248 140.418 244.418 136 240 136Z" fill="#CBCBCB"/>
<path d="M280 96L264 136H248V48L264 40L280 48V96Z" fill="#02A437"/>
<path d="M432 208H472V224L456 240H432V208Z" fill="white"/>
<path d="M392 184H376C373.878 184 371.843 183.157 370.343 181.657C368.843 180.157 368 178.122 368 176C368 173.878 368.843 171.843 370.343 170.343C371.843 168.843 373.878 168 376 168H392C394.122 168 396.157 168.843 397.657 170.343C399.157 171.843 400 173.878 400 176C400 178.122 399.157 180.157 397.657 181.657C396.157 183.157 394.122 184 392 184Z" fill="white"/>
<path d="M72 72H24C21.8783 72 19.8434 71.1572 18.3431 69.6569C16.8429 68.1566 16 66.1217 16 64C16 61.8783 16.8429 59.8434 18.3431 58.3431C19.8434 56.8428 21.8783 56 24 56H72C74.1217 56 76.1566 56.8428 77.6569 58.3431C79.1571 59.8434 80 61.8783 80 64C80 66.1217 79.1571 68.1566 77.6569 69.6569C76.1566 71.1572 74.1217 72 72 72Z" fill="url(#paint2_linear)"/>
<path d="M88 104H8C5.87827 104 3.84344 103.157 2.34315 101.657C0.842854 100.157 0 98.1217 0 96C0 93.8783 0.842854 91.8434 2.34315 90.3431C3.84344 88.8428 5.87827 88 8 88H88C90.1217 88 92.1566 88.8428 93.6569 90.3431C95.1571 91.8434 96 93.8783 96 96C96 98.1217 95.1571 100.157 93.6569 101.657C92.1566 103.157 90.1217 104 88 104Z" fill="url(#paint3_linear)"/>
<path d="M76 136H20C17.8783 136 15.8434 135.157 14.3431 133.657C12.8429 132.157 12 130.122 12 128C12 125.878 12.8429 123.843 14.3431 122.343C15.8434 120.843 17.8783 120 20 120H76C78.1217 120 80.1566 120.843 81.6569 122.343C83.1571 123.843 84 125.878 84 128C84 130.122 83.1571 132.157 81.6569 133.657C80.1566 135.157 78.1217 136 76 136Z" fill="url(#paint4_linear)"/>
<path d="M472 184H448C445.878 184 443.843 183.157 442.343 181.657C440.843 180.157 440 178.122 440 176C440 173.878 440.843 171.843 442.343 170.343C443.843 168.843 445.878 168 448 168H472V184Z" fill="white"/>
<path d="M264 144H184C182.32 144 180.684 143.472 179.322 142.49C177.959 141.508 176.941 140.123 176.41 138.53L160.41 90.53C160.009 89.3274 159.899 88.0467 160.091 86.7935C160.282 85.5403 160.768 84.3505 161.509 83.3222C162.25 82.2938 163.225 81.4563 164.354 80.8787C165.482 80.3011 166.732 79.9999 168 80H280C281.267 79.9999 282.517 80.3011 283.645 80.8787C284.774 81.4563 285.749 82.2938 286.49 83.3222C287.231 84.3505 287.718 85.5403 287.909 86.7935C288.1 88.0467 287.991 89.3274 287.59 90.53L271.59 138.53C271.059 140.123 270.04 141.508 268.678 142.49C267.315 143.472 265.679 144 264 144ZM189.766 128H258.234L268.9 96H179.1L189.766 128Z" fill="#CBCBCB"/>
<path d="M344 88H360V164V240H344V164V88Z" fill="white"/>
<path d="M408 272C400.089 272 392.355 269.654 385.777 265.259C379.199 260.864 374.072 254.616 371.045 247.307C368.017 239.998 367.225 231.956 368.769 224.196C370.312 216.437 374.122 209.31 379.716 203.716C385.31 198.122 392.437 194.312 400.196 192.769C407.956 191.225 415.998 192.017 423.307 195.045C430.616 198.072 436.864 203.199 441.259 209.777C445.654 216.355 448 224.089 448 232C447.988 242.605 443.77 252.772 436.271 260.271C428.772 267.77 418.605 271.988 408 272ZM408 208C403.253 208 398.613 209.408 394.666 212.045C390.72 214.682 387.643 218.43 385.827 222.816C384.01 227.201 383.535 232.027 384.461 236.682C385.387 241.338 387.673 245.614 391.029 248.971C394.386 252.327 398.662 254.613 403.318 255.539C407.973 256.465 412.799 255.99 417.184 254.173C421.57 252.357 425.318 249.28 427.955 245.334C430.592 241.387 432 236.747 432 232C431.993 225.637 429.462 219.537 424.962 215.038C420.463 210.538 414.363 208.007 408 208Z" fill="#656666"/>
<defs>
<linearGradient id="paint0_linear" x1="200" y1="0" x2="200" y2="208" gradientUnits="userSpaceOnUse">
<stop stop-color="#FFEB5F"/>
<stop offset="1" stop-color="#F59441"/>
</linearGradient>
<linearGradient id="paint1_linear" x1="408" y1="88" x2="408" y2="240" gradientUnits="userSpaceOnUse">
<stop stop-color="#FFEB5F"/>
<stop offset="1" stop-color="#F59441"/>
</linearGradient>
<linearGradient id="paint2_linear" x1="48" y1="56" x2="48" y2="72" gradientUnits="userSpaceOnUse">
<stop stop-color="#FFEB5F"/>
<stop offset="1" stop-color="#F59441"/>
</linearGradient>
<linearGradient id="paint3_linear" x1="48" y1="88" x2="48" y2="104" gradientUnits="userSpaceOnUse">
<stop stop-color="#FFEB5F"/>
<stop offset="1" stop-color="#F59441"/>
</linearGradient>
<linearGradient id="paint4_linear" x1="48" y1="120" x2="48" y2="136" gradientUnits="userSpaceOnUse">
<stop stop-color="#FFEB5F"/>
<stop offset="1" stop-color="#F59441"/>
</linearGradient>
</defs>
</svg>
