<svg width="1234" height="1234" viewBox="0 0 1234 1234" fill="none" xmlns="http://www.w3.org/2000/svg">
<path d="M1176.16 882.551V1195.44H559.156V944.781L520.594 1041.19L385.625 964.062L441.179 839.096C447.944 823.862 457.924 810.272 470.433 799.256C482.942 788.24 497.686 780.059 513.652 775.275L655.562 732.688L694.125 713.406V578.438H886.938V713.406L925.5 732.688L1086.47 769.828C1111.96 775.711 1134.71 790.059 1151 810.531C1167.28 831.003 1176.15 856.39 1176.16 882.551Z" fill="#FDC8A2"/>
<path d="M886.938 578.438V649.031C857.622 665.942 824.374 674.844 790.531 674.844C756.688 674.844 723.44 665.942 694.125 649.031V578.438H886.938Z" fill="#FDBF92"/>
<path d="M559.156 1195.44V944.781L520.594 1041.19L385.625 964.062L441.169 839.086C447.939 823.855 457.919 810.267 470.428 799.251C482.937 788.235 497.678 780.052 513.643 775.263L655.562 732.688L694.125 713.406L790.531 867.656L886.938 713.406L925.5 732.688L1086.48 769.838C1111.97 775.72 1134.72 790.068 1151 810.541C1167.29 831.014 1176.16 856.402 1176.16 882.563V1002.62H1021.91V1195.44" fill="#D8345F"/>
<path d="M694.125 713.406L655.562 732.688V867.656L732.688 829.094L790.531 867.656L694.125 713.406Z" fill="#FA8DAA"/>
<path d="M886.938 713.406L925.5 732.688V867.656L848.375 829.094L790.531 867.656L886.938 713.406Z" fill="#FA8DAA"/>
<path d="M385.625 964.062L339.625 1065.26C334.194 1077.21 331.848 1090.33 332.802 1103.42C333.755 1116.51 337.978 1129.15 345.083 1140.18C352.188 1151.22 361.949 1160.29 373.471 1166.58C384.992 1172.86 397.907 1176.16 411.031 1176.16C426.381 1176.16 441.393 1171.65 454.208 1163.2C467.023 1154.75 477.077 1142.73 483.123 1128.62L520.594 1041.19L385.625 964.062Z" fill="#FDBF92"/>
<path d="M485.164 1083.3L424.188 732.688H173.531C173.531 753.142 181.657 772.759 196.121 787.223C210.584 801.687 230.201 809.812 250.656 809.812H327.781V1096.88C327.781 1117.9 336.134 1138.07 351.001 1152.94C365.868 1167.8 386.033 1176.16 407.059 1176.16C418.619 1176.16 430.041 1173.63 440.521 1168.75C451.002 1163.87 460.289 1156.76 467.73 1147.91C475.172 1139.06 480.589 1128.69 483.6 1117.53C486.612 1106.37 487.146 1094.69 485.164 1083.3Z" fill="#FDC8A2"/>
<path d="M597.719 250.656V443.469C597.719 494.606 618.033 543.648 654.192 579.808C690.352 615.967 739.394 636.281 790.531 636.281C841.668 636.281 890.711 615.967 926.87 579.808C963.03 543.648 983.344 494.606 983.344 443.469V250.656H597.719Z" fill="#FDC8A2"/>
<path d="M597.719 231.375V284.398C597.719 301.018 604.321 316.957 616.073 328.709C627.824 340.46 643.763 347.062 660.383 347.062C682.674 347.062 704.76 342.808 725.457 334.53C767.231 317.82 813.832 317.82 855.605 334.53C876.302 342.808 898.389 347.062 920.68 347.062C937.299 347.062 953.238 340.46 964.99 328.709C976.742 316.957 983.344 301.018 983.344 284.398V231.375H597.719Z" fill="#FDBF92"/>
<path d="M597.719 308.5V250.656H674.844L597.719 308.5Z" fill="#7A432A"/>
<path d="M983.344 308.5V250.656H906.219L983.344 308.5Z" fill="#7A432A"/>
<path d="M886.938 404.906C879.311 404.906 871.855 402.645 865.513 398.407C859.172 394.17 854.229 388.147 851.31 381.101C848.392 374.055 847.628 366.301 849.116 358.821C850.604 351.34 854.277 344.469 859.67 339.076C865.063 333.683 871.934 330.01 879.414 328.522C886.895 327.034 894.648 327.798 901.695 330.717C908.741 333.635 914.764 338.578 919.001 344.92C923.238 351.261 925.5 358.717 925.5 366.344C925.488 376.567 921.421 386.369 914.192 393.598C906.963 400.827 897.161 404.894 886.938 404.906Z" fill="#91563A"/>
<path d="M694.125 404.906C686.498 404.906 679.042 402.645 672.701 398.407C666.359 394.17 661.417 388.147 658.498 381.101C655.579 374.055 654.816 366.301 656.303 358.821C657.791 351.34 661.464 344.469 666.857 339.076C672.25 333.683 679.121 330.01 686.602 328.522C694.082 327.034 701.836 327.798 708.882 330.717C715.929 333.635 721.951 338.578 726.189 344.92C730.426 351.261 732.688 358.717 732.688 366.344C732.675 376.567 728.609 386.369 721.379 393.598C714.15 400.827 704.349 404.894 694.125 404.906Z" fill="#91563A"/>
<path d="M713.406 57.8438H867.656C898.338 57.8438 927.764 70.0322 949.46 91.7278C971.155 113.423 983.344 142.849 983.344 173.531V250.656H597.719V173.531C597.719 142.849 609.907 113.423 631.603 91.7278C653.298 70.0322 682.724 57.8438 713.406 57.8438Z" fill="#F25F86"/>
<path d="M920.68 308.5C898.389 308.499 876.302 304.246 855.605 295.967C813.832 279.258 767.231 279.258 725.457 295.967C704.76 304.246 682.674 308.499 660.383 308.5C643.763 308.5 627.824 301.898 616.073 290.146C604.321 278.394 597.719 262.455 597.719 245.836V231.375L640.239 217.201C688.7 201.048 739.449 192.813 790.531 192.812C841.614 192.813 892.362 201.048 940.824 217.201L983.344 231.375V245.836C983.344 262.455 976.742 278.394 964.99 290.146C953.238 301.898 937.299 308.5 920.68 308.5Z" fill="#D8345F"/>
<path d="M767.876 520.594H751.969V482.031H767.876C792.451 482.002 816.685 476.281 838.679 465.317L839.742 464.787L856.989 499.276L855.928 499.806C828.577 513.442 798.438 520.558 767.876 520.594Z" fill="#FCB079"/>
<path d="M578.438 308.5H597.719V424.188H578.438C563.096 424.188 548.384 418.093 537.536 407.245C526.688 396.398 520.594 381.685 520.594 366.344C520.594 351.003 526.688 336.29 537.536 325.442C548.384 314.594 563.096 308.5 578.438 308.5Z" fill="#FDB683"/>
<path d="M1002.62 424.188H983.344V308.5H1002.62C1017.97 308.5 1032.68 314.594 1043.53 325.442C1054.37 336.29 1060.47 351.003 1060.47 366.344C1060.47 381.685 1054.37 396.398 1043.53 407.245C1032.68 418.093 1017.97 424.187 1002.62 424.188Z" fill="#FDB683"/>
<path d="M771.25 848.375H809.812V1021.91H771.25V848.375Z" fill="#F25F86"/>
<path d="M694.125 906.219H732.688V944.781H694.125V906.219Z" fill="#FA8DAA"/>
<path d="M1002.62 925.5H1041.19V1002.62H1002.62V925.5Z" fill="#F25F86"/>
<path d="M848.375 1041.19H964.062V1079.75H848.375V1041.19Z" fill="#F25F86"/>
<path d="M57.8438 501.312H597.719V617H57.8438V501.312Z" fill="#FFB431"/>
<path d="M366.344 501.312H597.719V617H366.344V501.312Z" fill="#F99E0C"/>
<path d="M212.094 559.156C196.753 559.156 182.04 553.062 171.192 542.214C160.344 531.366 154.25 516.654 154.25 501.312H269.938C269.938 516.654 263.843 531.366 252.995 542.214C242.148 553.062 227.435 559.156 212.094 559.156Z" fill="#F99E0C"/>
<path d="M57.8438 617H597.719V732.688H57.8438V617Z" fill="#FFB431"/>
<path d="M366.344 617H597.719V732.688H366.344V617Z" fill="#F99E0C"/>
<path d="M212.094 674.844C196.753 674.844 182.04 668.749 171.192 657.902C160.344 647.054 154.25 632.341 154.25 617H269.938C269.938 632.341 263.843 647.054 252.995 657.902C242.148 668.749 227.435 674.844 212.094 674.844Z" fill="#F99E0C"/>
<path d="M57.8438 597.719H366.344V636.281H57.8438V597.719Z" fill="#F99E0C"/>
<path d="M366.344 597.719H597.719V636.281H366.344V597.719Z" fill="#F4970C"/>
</svg>
