<svg width="488" height="328" viewBox="0 0 488 328" fill="none" xmlns="http://www.w3.org/2000/svg">
<path fill-rule="evenodd" clip-rule="evenodd" d="M72.5 59C88.7924 59 102 45.7924 102 29.5C102 13.2076 88.7924 0 72.5 0C56.2076 0 43 13.2076 43 29.5C43 45.7924 56.2076 59 72.5 59ZM72.5 50.2297C83.9487 50.2297 93.2297 40.9487 93.2297 29.5C93.2297 18.0513 83.9487 8.77027 72.5 8.77027C61.0513 8.77027 51.7703 18.0513 51.7703 29.5C51.7703 40.9487 61.0513 50.2297 72.5 50.2297Z" fill="#3E3E3E"/>
<path fill-rule="evenodd" clip-rule="evenodd" d="M375.5 184C391.792 184 405 170.792 405 154.5C405 138.208 391.792 125 375.5 125C359.208 125 346 138.208 346 154.5C346 170.792 359.208 184 375.5 184ZM375.5 175.23C386.949 175.23 396.23 165.949 396.23 154.5C396.23 143.051 386.949 133.77 375.5 133.77C364.051 133.77 354.77 143.051 354.77 154.5C354.77 165.949 364.051 175.23 375.5 175.23Z" fill="#3E3E3E"/>
<path fill-rule="evenodd" clip-rule="evenodd" d="M153.5 328C169.792 328 183 314.792 183 298.5C183 282.208 169.792 269 153.5 269C137.208 269 124 282.208 124 298.5C124 314.792 137.208 328 153.5 328ZM153.5 319.23C164.949 319.23 174.23 309.949 174.23 298.5C174.23 287.051 164.949 277.77 153.5 277.77C142.051 277.77 132.77 287.051 132.77 298.5C132.77 309.949 142.051 319.23 153.5 319.23Z" fill="#3E3E3E"/>
<path fill-rule="evenodd" clip-rule="evenodd" d="M43 24H7.5C3.35786 24 0 27.3579 0 31.5C0 35.6421 3.35788 39 7.50001 39H43V24ZM102 39H480.5C484.642 39 488 35.6421 488 31.5C488 27.3579 484.642 24 480.5 24H102V39Z" fill="#3E3E3E"/>
<path fill-rule="evenodd" clip-rule="evenodd" d="M346 147H7.5C3.35791 147 0 150.358 0 154.5C0 158.642 3.35791 162 7.5 162H346V147ZM405 162H480.5C484.642 162 488 158.642 488 154.5C488 150.358 484.642 147 480.5 147H405V162Z" fill="#3E3E3E"/>
<path fill-rule="evenodd" clip-rule="evenodd" d="M124 291H7.5C3.35791 291 0 294.358 0 298.5C0 302.642 3.35791 306 7.5 306H124V291ZM183 306H480.5C484.642 306 488 302.642 488 298.5C488 294.358 484.642 291 480.5 291H183V306Z" fill="#3E3E3E"/>
</svg>
