<svg width="565" height="622" viewBox="0 0 565 622" fill="none" xmlns="http://www.w3.org/2000/svg">
<path d="M473.654 314.269C518.768 390.717 527.859 489.73 487.121 547.655C446.384 605.918 356.155 622.757 267.61 621.746C179.065 620.736 92.2032 601.876 57.5258 547.319C22.8484 492.761 40.3555 402.505 83.7863 327.067C127.217 251.292 196.572 190.335 271.987 186.967C347.065 183.263 428.54 237.484 473.654 314.269Z" fill="url(#paint0_linear)"/>
<path d="M411.134 551.789H139.134L123.134 519.789H411.134V551.789Z" fill="#CBCBCB"/>
<path d="M123.134 311.789H411.134V519.789H123.134V311.789Z" fill="white"/>
<path d="M411.134 399.789H475.134L507.134 455.789L528.529 461.138C531.558 461.895 534.247 463.643 536.168 466.104C538.09 468.565 539.134 471.597 539.134 474.72V535.789L523.134 551.789H411.134V399.789Z" fill="white"/>
<path d="M475.134 399.789H443.134V455.789H507.134L475.134 399.789Z" fill="#CBCBCB"/>
<path d="M467.134 399.789H443.134V455.789H499.134L467.134 399.789Z" fill="#EAEAE8"/>
<path d="M195.134 575.789C212.807 575.789 227.134 561.462 227.134 543.789C227.134 526.115 212.807 511.789 195.134 511.789C177.461 511.789 163.134 526.115 163.134 543.789C163.134 561.462 177.461 575.789 195.134 575.789Z" fill="#EAEAE8"/>
<path d="M475.134 575.789C492.807 575.789 507.134 561.462 507.134 543.789C507.134 526.115 492.807 511.789 475.134 511.789C457.461 511.789 443.134 526.115 443.134 543.789C443.134 561.462 457.461 575.789 475.134 575.789Z" fill="#EAEAE8"/>
<path d="M195.134 583.789C187.223 583.789 179.489 581.443 172.911 577.047C166.333 572.652 161.206 566.405 158.179 559.096C155.151 551.787 154.359 543.744 155.902 535.985C157.446 528.226 161.255 521.098 166.85 515.504C172.444 509.91 179.571 506.101 187.33 504.557C195.089 503.014 203.132 503.806 210.441 506.833C217.75 509.861 223.997 514.988 228.393 521.566C232.788 528.144 235.134 535.877 235.134 543.789C235.122 554.394 230.904 564.561 223.405 572.06C215.906 579.559 205.739 583.777 195.134 583.789V583.789ZM195.134 519.789C190.387 519.789 185.747 521.196 181.8 523.833C177.853 526.47 174.777 530.219 172.961 534.604C171.144 538.99 170.669 543.815 171.595 548.471C172.521 553.126 174.807 557.403 178.163 560.759C181.52 564.116 185.796 566.401 190.452 567.327C195.107 568.253 199.933 567.778 204.318 565.962C208.704 564.145 212.452 561.069 215.089 557.122C217.726 553.175 219.134 548.535 219.134 543.789C219.126 537.426 216.595 531.325 212.096 526.826C207.597 522.327 201.497 519.796 195.134 519.789V519.789Z" fill="#656666"/>
<path d="M315.134 487.789H262.453C257.331 487.782 252.421 485.745 248.799 482.123C245.177 478.502 243.14 473.591 243.134 468.47V447.789C243.134 445.667 243.977 443.632 245.477 442.132C246.977 440.631 249.012 439.789 251.134 439.789C253.256 439.789 255.29 440.631 256.791 442.132C258.291 443.632 259.134 445.667 259.134 447.789V468.47C259.135 469.35 259.485 470.193 260.107 470.815C260.729 471.438 261.573 471.788 262.453 471.789H315.134C317.256 471.789 319.29 472.631 320.791 474.132C322.291 475.632 323.134 477.667 323.134 479.789C323.134 481.91 322.291 483.945 320.791 485.445C319.29 486.946 317.256 487.789 315.134 487.789Z" fill="#CBCBCB"/>
<path d="M235.14 407.789C233.653 407.789 232.195 407.376 230.93 406.595C229.665 405.813 228.643 404.695 227.979 403.365L214.19 375.789H195.134C193.012 375.789 190.977 374.946 189.477 373.445C187.977 371.945 187.134 369.91 187.134 367.789C187.134 365.667 187.977 363.632 189.477 362.132C190.977 360.631 193.012 359.789 195.134 359.789H219.134C220.619 359.789 222.076 360.202 223.339 360.983C224.603 361.764 225.624 362.882 226.289 364.211L242.289 396.211C242.898 397.43 243.186 398.785 243.126 400.146C243.065 401.508 242.657 402.832 241.94 403.992C241.224 405.151 240.224 406.109 239.033 406.774C237.843 407.438 236.503 407.788 235.14 407.789Z" fill="#CBCBCB"/>
<path d="M273.134 495.789C280.866 495.789 287.134 489.521 287.134 481.789C287.134 474.057 280.866 467.789 273.134 467.789C265.402 467.789 259.134 474.057 259.134 481.789C259.134 489.521 265.402 495.789 273.134 495.789Z" fill="#A8A8A8"/>
<path d="M273.134 487.789C276.447 487.789 279.134 485.102 279.134 481.789C279.134 478.475 276.447 475.789 273.134 475.789C269.82 475.789 267.134 478.475 267.134 481.789C267.134 485.102 269.82 487.789 273.134 487.789Z" fill="#CBCBCB"/>
<path d="M317.134 495.789C324.866 495.789 331.134 489.521 331.134 481.789C331.134 474.057 324.866 467.789 317.134 467.789C309.402 467.789 303.134 474.057 303.134 481.789C303.134 489.521 309.402 495.789 317.134 495.789Z" fill="#A8A8A8"/>
<path d="M317.134 487.789C320.447 487.789 323.134 485.102 323.134 481.789C323.134 478.475 320.447 475.789 317.134 475.789C313.82 475.789 311.134 478.475 311.134 481.789C311.134 485.102 313.82 487.789 317.134 487.789Z" fill="#CBCBCB"/>
<path d="M275.134 447.789H251.134L243.134 399.789V359.789C243.134 355.545 244.82 351.475 247.82 348.475C250.821 345.474 254.89 343.789 259.134 343.789C263.377 343.789 267.447 345.474 270.447 348.475C273.448 351.475 275.134 355.545 275.134 359.789V447.789Z" fill="#8F6934"/>
<path d="M275.134 367.789H315.134V447.789H275.134V367.789Z" fill="#0BAFEA"/>
<path d="M307.134 367.789H315.134V447.789H307.134V367.789Z" fill="#0A9ACD"/>
<path d="M267.134 367.789H275.134V447.789H267.134V367.789Z" fill="#5F4623"/>
<path d="M270.498 447.788C268.365 446.546 267.134 450.863 267.134 448.394V396.85C267.134 394.995 268.034 394.705 269.134 396.203C275.769 405.292 283.134 393.451 283.134 399.788V447.788C283.134 453.688 276.734 451.422 270.498 447.788Z" fill="#CBCBCB"/>
<path d="M307.134 447.789C302.716 447.789 299.134 452.207 299.134 447.789V399.789C299.134 395.371 302.716 399.789 307.134 399.789C311.552 399.789 315.134 395.371 315.134 399.789V447.789C315.134 452.207 311.552 447.789 307.134 447.789Z" fill="#CBCBCB"/>
<path d="M347.134 407.789L331.134 447.789H315.134V359.789L331.134 351.789L347.134 359.789V407.789Z" fill="#02A437"/>
<path d="M499.134 519.789H539.134V535.789L523.134 551.789H499.134V519.789Z" fill="#CBCBCB"/>
<path d="M459.134 495.789H443.134C441.012 495.789 438.977 494.946 437.477 493.445C435.977 491.945 435.134 489.91 435.134 487.789C435.134 485.667 435.977 483.632 437.477 482.132C438.977 480.631 441.012 479.789 443.134 479.789H459.134C461.256 479.789 463.29 480.631 464.791 482.132C466.291 483.632 467.134 485.667 467.134 487.789C467.134 489.91 466.291 491.945 464.791 493.445C463.29 494.946 461.256 495.789 459.134 495.789Z" fill="#CFCFCE"/>
<g clip-path="url(#clip0)">
<path d="M139.134 383.789H91.1338C89.0121 383.789 86.9772 382.946 85.4769 381.445C83.9766 379.945 83.1338 377.91 83.1338 375.789C83.1338 373.667 83.9766 371.632 85.4769 370.132C86.9772 368.631 89.0121 367.789 91.1338 367.789H139.134C141.256 367.789 143.29 368.631 144.791 370.132C146.291 371.632 147.134 373.667 147.134 375.789C147.134 377.91 146.291 379.945 144.791 381.445C143.29 382.946 141.256 383.789 139.134 383.789Z" fill="white"/>
<path d="M155.134 415.789H75.1338C73.0121 415.789 70.9772 414.946 69.4769 413.445C67.9766 411.945 67.1338 409.91 67.1338 407.789C67.1338 405.667 67.9766 403.632 69.4769 402.132C70.9772 400.631 73.0121 399.789 75.1338 399.789H155.134C157.256 399.789 159.29 400.631 160.791 402.132C162.291 403.632 163.134 405.667 163.134 407.789C163.134 409.91 162.291 411.945 160.791 413.445C159.29 414.946 157.256 415.789 155.134 415.789Z" fill="white"/>
<path d="M143.134 447.789H87.1338C85.0121 447.789 82.9772 446.946 81.4769 445.445C79.9766 443.945 79.1338 441.91 79.1338 439.789C79.1338 437.667 79.9766 435.632 81.4769 434.132C82.9772 432.631 85.0121 431.789 87.1338 431.789H143.134C145.256 431.789 147.29 432.631 148.791 434.132C150.291 435.632 151.134 437.667 151.134 439.789C151.134 441.91 150.291 443.945 148.791 445.445C147.29 446.946 145.256 447.789 143.134 447.789Z" fill="white"/>
</g>
<path d="M539.134 495.789H515.134C513.012 495.789 510.977 494.946 509.477 493.445C507.977 491.945 507.134 489.91 507.134 487.789C507.134 485.667 507.977 483.632 509.477 482.132C510.977 480.631 513.012 479.789 515.134 479.789H539.134V495.789Z" fill="white"/>
<path d="M331.133 455.789H251.133C249.454 455.789 247.818 455.26 246.455 454.279C245.093 453.297 244.074 451.912 243.543 450.319L227.543 402.319C227.142 401.116 227.033 399.835 227.224 398.582C227.415 397.329 227.902 396.139 228.643 395.111C229.384 394.082 230.359 393.245 231.488 392.667C232.616 392.09 233.866 391.788 235.133 391.789H347.133C348.401 391.788 349.651 392.09 350.779 392.667C351.908 393.245 352.883 394.082 353.624 395.111C354.365 396.139 354.851 397.329 355.042 398.582C355.234 399.835 355.124 401.116 354.723 402.319L338.723 450.319C338.192 451.912 337.174 453.297 335.811 454.279C334.449 455.26 332.813 455.789 331.133 455.789ZM256.899 439.789H325.367L336.033 407.789H246.233L256.899 439.789Z" fill="#CBCBCB"/>
<path d="M411.134 399.789H427.134V475.789V551.789H411.134V399.789Z" fill="#CFCFCE"/>
<path d="M475.134 583.789C467.223 583.789 459.489 581.443 452.911 577.047C446.333 572.652 441.206 566.405 438.179 559.096C435.151 551.787 434.359 543.744 435.902 535.985C437.446 528.226 441.255 521.098 446.85 515.504C452.444 509.91 459.571 506.101 467.33 504.557C475.089 503.014 483.132 503.806 490.441 506.833C497.75 509.861 503.997 514.988 508.393 521.566C512.788 528.144 515.134 535.877 515.134 543.789C515.122 554.394 510.904 564.561 503.405 572.06C495.906 579.559 485.739 583.777 475.134 583.789V583.789ZM475.134 519.789C470.387 519.789 465.747 521.196 461.8 523.833C457.853 526.47 454.777 530.219 452.961 534.604C451.144 538.99 450.669 543.815 451.595 548.471C452.521 553.126 454.807 557.403 458.163 560.759C461.52 564.116 465.796 566.401 470.452 567.327C475.107 568.253 479.933 567.778 484.318 565.962C488.704 564.145 492.452 561.069 495.089 557.122C497.726 553.175 499.134 548.535 499.134 543.789C499.126 537.426 496.595 531.325 492.096 526.826C487.597 522.327 481.497 519.796 475.134 519.789V519.789Z" fill="#656666"/>
<path fill-rule="evenodd" clip-rule="evenodd" d="M106.444 269.555C104.986 268.01 103.449 266.533 101.843 265.14C86.7326 251.978 65.4719 246.228 49.712 252.38C33.8562 258.484 23.4052 276.443 19.5453 295.713C15.6613 314.911 18.3683 335.419 29.6648 344.584C36.5562 350.175 46.6443 351.544 57.7712 350.375C69.4467 319.524 85.7981 291.454 106.444 269.555Z" fill="url(#paint1_linear)"/>
<path fill-rule="evenodd" clip-rule="evenodd" d="M196.717 179.636C194.365 174.052 192.422 168.257 190.957 162.357C182.13 127.1 190.342 88.0074 213.261 67.6048C236.181 47.0079 275.127 38.6097 309.445 48.2387C350.426 51.8084 381.432 105.079 377.262 132.885C376.639 146.861 371.126 163.371 361.816 179.722L361.613 179.665C305.442 163.897 245.368 161.968 196.717 179.636Z" fill="url(#paint2_linear)"/>
<path fill-rule="evenodd" clip-rule="evenodd" d="M509.911 364.103C512.578 363.585 515.222 362.893 517.802 362.027C536.054 355.94 551.171 341.154 553.761 325.119C556.437 309.029 546.673 291.632 532.614 279.049C518.625 266.482 500.341 258.728 487.255 263.607C480.065 266.288 474.444 272.783 470.144 281.188C490.427 306.731 504.983 335.346 509.911 364.103Z" fill="url(#paint3_linear)"/>
<defs>
<linearGradient id="paint0_linear" x1="276.134" y1="186.789" x2="276.134" y2="621.789" gradientUnits="userSpaceOnUse">
<stop stop-color="#FFEB5F"/>
<stop offset="1" stop-color="#F59441"/>
</linearGradient>
<linearGradient id="paint1_linear" x1="51.0224" y1="234.8" x2="86.066" y2="339.534" gradientUnits="userSpaceOnUse">
<stop stop-color="#FFEB5F"/>
<stop offset="1" stop-color="#F59441"/>
</linearGradient>
<linearGradient id="paint2_linear" x1="230.553" y1="77.9938" x2="346.46" y2="195.942" gradientUnits="userSpaceOnUse">
<stop stop-color="#FFEB5F"/>
<stop offset="1" stop-color="#F59441"/>
</linearGradient>
<linearGradient id="paint3_linear" x1="554.117" y1="323.628" x2="465.143" y2="304.716" gradientUnits="userSpaceOnUse">
<stop stop-color="#FFEB5F"/>
<stop offset="1" stop-color="#F59441"/>
</linearGradient>
<clipPath id="clip0">
<rect width="96" height="80" fill="white" transform="translate(67.1338 367.789)"/>
</clipPath>
</defs>
</svg>
